<svg width="56" height="49" viewBox="0 0 56 49" fill="none" xmlns="http://www.w3.org/2000/svg">
<g clip-path="url(#clip0_19_2118)">
<path d="M33.2543 19.5413L31.5153 18.5564V14.229H33.5575C34.1424 14.229 34.6211 13.7575 34.6211 13.1812C34.6211 12.6049 34.1424 12.1334 33.5575 12.1334H31.5153V10.3103C31.5153 9.73399 31.0367 9.26248 30.4517 9.26248C29.8667 9.26248 29.388 9.73399 29.388 10.3103V12.1334H29.3242C28.0425 12.1334 26.8672 12.7726 26.2503 13.8099C25.7132 14.7058 25.6387 15.7221 26.0323 16.749C26.3726 17.6448 27.0587 18.4359 27.9894 18.986L29.3934 19.7771V23.7168H26.8566C26.2716 23.7168 25.793 24.1883 25.793 24.7646C25.793 25.3409 26.2716 25.8124 26.8566 25.8124H29.3934V27.7927C29.3934 28.369 29.872 28.8405 30.457 28.8405C31.042 28.8405 31.5206 28.369 31.5206 27.7927V25.8124H31.6429C32.9671 25.8124 34.1956 25.0999 34.7647 23.9944C35.121 23.3029 35.2167 22.538 35.0306 21.7836C34.8019 20.8668 34.1584 20.0495 33.265 19.5466L33.2543 19.5413ZM29.0636 17.1733C28.5637 16.8747 28.1968 16.4608 28.0213 16.005C27.8564 15.5754 27.8777 15.2139 28.0851 14.8682C28.3191 14.4752 28.7977 14.229 29.3295 14.229H29.3934V17.3567L29.0689 17.1733H29.0636ZM32.8608 23.0357C32.6481 23.4443 32.1694 23.7115 31.6323 23.7115H31.51V20.9768L32.1907 21.3645C32.5842 21.5845 32.8608 21.9198 32.9512 22.2813C33.015 22.5485 32.9884 22.7895 32.8608 23.0409V23.0357Z" fill="#1E1E1E"/>
<path d="M54.9364 33.9802H45.4222C47.007 32.5395 48.0015 30.4858 48.0015 28.2016V12.8357C48.0015 12.5005 47.8367 12.1809 47.5601 11.987L30.9462 0.199375C30.5687 -0.0678123 30.0581 -0.0625733 29.6805 0.215092L14.1356 11.788H1.06363C0.478632 11.788 0 12.2595 0 12.8357C0 13.412 0.478632 13.8835 1.06363 13.8835H13.4336V28.2016C13.4336 32.5447 17.018 36.0758 21.4268 36.0758H54.9364C55.5214 36.0758 56 35.6043 56 35.028C56 34.4517 55.5214 33.9802 54.9364 33.9802ZM39.8648 33.9802H21.4268C18.1934 33.9802 15.5609 31.3869 15.5609 28.2016V13.3544L30.34 2.35259L45.8743 13.3754V28.2069C45.8743 31.3921 43.2418 33.9854 40.0084 33.9854H39.8648V33.9802Z" fill="#1E1E1E"/>
<path d="M22.4691 38.5692C19.5494 38.5692 17.1722 40.911 17.1722 43.7872C17.1722 46.6634 19.5494 49.0052 22.4691 49.0052C25.3888 49.0052 27.766 46.6634 27.766 43.7872C27.766 40.911 25.3888 38.5692 22.4691 38.5692ZM22.4691 46.9044C20.7248 46.9044 19.2995 45.5056 19.2995 43.782C19.2995 42.0584 20.7194 40.6596 22.4691 40.6596C24.2188 40.6596 25.6387 42.0584 25.6387 43.782C25.6387 45.5056 24.2188 46.9044 22.4691 46.9044Z" fill="#1E1E1E"/>
<path d="M38.2853 38.5692C35.3656 38.5692 32.9884 40.911 32.9884 43.7872C32.9884 46.6634 35.3656 49.0052 38.2853 49.0052C41.2049 49.0052 43.5821 46.6634 43.5821 43.7872C43.5821 40.911 41.2049 38.5692 38.2853 38.5692ZM38.2853 46.9044C36.5409 46.9044 35.1157 45.5056 35.1157 43.782C35.1157 42.0584 36.5356 40.6596 38.2853 40.6596C40.0349 40.6596 41.4549 42.0584 41.4549 43.782C41.4549 45.5056 40.0349 46.9044 38.2853 46.9044Z" fill="#1E1E1E"/>
</g>
<defs>
<clipPath id="clip0_19_2118">
<rect width="56" height="49" fill="white"/>
</clipPath>
</defs>
</svg>
