<svg width="41" height="48" viewBox="0 0 41 48" fill="none" xmlns="http://www.w3.org/2000/svg">
<g clip-path="url(#clip0_19_2115)">
<path d="M40.5842 16.1219L21.0422 0.252866C20.6264 -0.0839367 20.0308 -0.0839367 19.615 0.258479L0.410169 16.1275C0.151706 16.3408 0 16.6608 0 16.992V37.6829C0 43.3692 4.62985 47.9946 10.3216 47.9946H30.6727C36.3645 47.9946 40.9944 43.3692 40.9944 37.6829V16.992C40.9944 16.6552 40.8427 16.3352 40.5786 16.1219H40.5842ZM16.1033 45.7549V36.7118C16.1033 35.7463 16.89 34.9604 17.8508 34.9604H23.1492C24.1157 34.9604 24.9023 35.7463 24.9023 36.7118V45.7549H16.1033ZM38.7525 37.6885C38.7525 42.1343 35.1284 45.7549 30.6784 45.7549H27.1498V36.7118C27.1498 34.5113 25.3574 32.715 23.1492 32.715H17.8508C15.6482 32.715 13.8558 34.5057 13.8558 36.7118V45.7549H10.3273C5.87721 45.7549 2.25312 42.1343 2.25312 37.6885V17.5196L20.3399 2.5768L38.7525 17.5308V37.6885Z" fill="white"/>
<path d="M19.3734 11.0471V13.0006H19.306C17.9518 13.0006 16.7101 13.6854 16.0583 14.7969C15.4908 15.7568 15.4122 16.8458 15.828 17.946C16.1876 18.9059 16.9124 19.7535 17.8957 20.3429L19.379 21.1905V25.4118H16.6989C16.0808 25.4118 15.5751 25.917 15.5751 26.5344C15.5751 27.1519 16.0808 27.6571 16.6989 27.6571H19.379V29.779C19.379 30.3964 19.8847 30.9017 20.5028 30.9017C21.1208 30.9017 21.6265 30.3964 21.6265 29.779V27.6571H21.7557C23.1548 27.6571 24.4527 26.8937 25.0539 25.7093C25.4304 24.9683 25.5315 24.1488 25.3349 23.346C25.0989 22.3637 24.4134 21.488 23.4695 20.9435L21.6321 19.8882V15.2516H23.7897C24.4078 15.2516 24.9135 14.7463 24.9135 14.1289C24.9135 13.5114 24.4078 13.0062 23.7897 13.0062H21.6321V11.0527C21.6321 10.4353 21.1264 9.93007 20.5084 9.93007C19.8903 9.93007 19.3846 10.4353 19.3846 11.0527L19.3734 11.0471ZM22.3401 22.8857C22.7559 23.1271 23.048 23.4808 23.1436 23.8681C23.211 24.1544 23.1829 24.4126 23.048 24.682C22.8233 25.1199 22.312 25.4062 21.7501 25.4062H21.6209V22.4704L22.3401 22.8857ZM19.3734 18.5971L19.0306 18.4007C18.5025 18.0807 18.1148 17.6372 17.9294 17.1489C17.7552 16.6886 17.7777 16.3013 17.9968 15.9308C18.244 15.5098 18.7497 15.2459 19.3116 15.2459H19.379V18.5971H19.3734Z" fill="white"/>
</g>
<defs>
<clipPath id="clip0_19_2115">
<rect width="41" height="48" fill="white"/>
</clipPath>
</defs>
</svg>
