<svg width="41" height="49" viewBox="0 0 41 49" fill="none" xmlns="http://www.w3.org/2000/svg">
<g clip-path="url(#clip0_19_2123)">
<path d="M40.0921 0H0.907883C0.408547 0 0 0.415567 0 0.923483V4.99604C0 5.50396 0.408547 5.91952 0.907883 5.91952H1.77945V39.9129C1.77945 44.9228 5.78776 49 10.713 49H30.178C35.1033 49 39.1116 44.9228 39.1116 39.9129V5.91952H40.0921C40.5915 5.91952 41 5.50396 41 4.99604V0.923483C41 0.415567 40.5915 0 40.0921 0ZM16.9456 47.153V36.8839C16.9456 36.0897 17.5812 35.4479 18.3619 35.4479H22.6426C23.4234 35.4479 24.0544 36.0943 24.0544 36.8839V47.153H16.9456ZM37.2958 39.9129C37.2958 43.907 34.1001 47.153 30.178 47.153H25.8701V36.8839C25.8701 35.0739 24.4221 33.6009 22.6426 33.6009H18.3619C16.5825 33.6009 15.1299 35.0739 15.1299 36.8839V47.153H10.713C6.78643 47.153 3.59522 43.907 3.59522 39.9129V5.91952H37.2958V39.9129ZM39.1842 4.07256H38.5442C38.4398 4.031 38.3217 4.0033 38.2037 4.0033H2.68733C2.56477 4.0033 2.45128 4.02638 2.34688 4.07256H1.81577V1.84697H39.1842V4.07256Z" fill="#1E1E1E"/>
<path d="M8.929 27.4274H13.6001C14.0994 27.4274 14.5079 27.0119 14.5079 26.504V13.9862C14.5079 13.4782 14.0994 13.0627 13.6001 13.0627H8.929C8.42967 13.0627 8.02112 13.4782 8.02112 13.9862V26.504C8.02112 27.0119 8.42967 27.4274 8.929 27.4274ZM9.83688 14.9096H12.6922V25.5805H9.83688V14.9096Z" fill="#1E1E1E"/>
<path d="M18.0715 27.4274H22.7425C23.2418 27.4274 23.6504 27.0119 23.6504 26.504V13.9862C23.6504 13.4782 23.2418 13.0627 22.7425 13.0627H18.0715C17.5721 13.0627 17.1636 13.4782 17.1636 13.9862V26.504C17.1636 27.0119 17.5721 27.4274 18.0715 27.4274ZM18.9793 14.9096H21.8346V25.5805H18.9793V14.9096Z" fill="#1E1E1E"/>
<path d="M27.2909 27.4274H31.962C32.4613 27.4274 32.8699 27.0119 32.8699 26.504V13.9862C32.8699 13.4782 32.4613 13.0627 31.962 13.0627H27.2909C26.7916 13.0627 26.3831 13.4782 26.3831 13.9862V26.504C26.3831 27.0119 26.7916 27.4274 27.2909 27.4274ZM28.1988 14.9096H31.0541V25.5805H28.1988V14.9096Z" fill="#1E1E1E"/>
</g>
<defs>
<clipPath id="clip0_19_2123">
<rect width="41" height="49" fill="white"/>
</clipPath>
</defs>
</svg>
